<svg width="16" height="16" viewBox="0 0 16 16" fill="none" xmlns="http://www.w3.org/2000/svg">
<path d="M15.4414 11.5723L15.4316 1.77734C15.4316 1.39974 15.3145 1.09375 15.0801 0.859375C14.8522 0.61849 14.5397 0.498047 14.1426 0.498047H4.34766C3.98958 0.498047 3.6901 0.61849 3.44922 0.859375C3.21484 1.09375 3.09766 1.3737 3.09766 1.69922C3.09766 2.02474 3.2181 2.30143 3.45898 2.5293C3.70638 2.75716 3.99609 2.87109 4.32812 2.87109H7.86328L11.6523 2.73438L9.9043 4.27734L0.890625 13.3105C0.623698 13.5775 0.490234 13.8737 0.490234 14.1992C0.490234 14.4076 0.548828 14.6094 0.666016 14.8047C0.783203 14.9935 0.932943 15.1465 1.11523 15.2637C1.30404 15.3809 1.50911 15.4395 1.73047 15.4395C2.05599 15.4395 2.35221 15.306 2.61914 15.0391L11.6426 6.02539L13.2051 4.26758L13.0586 7.91016V11.5918C13.0586 11.9303 13.1693 12.2233 13.3906 12.4707C13.6185 12.7116 13.8984 12.832 14.2305 12.832C14.556 12.832 14.8392 12.7116 15.0801 12.4707C15.321 12.2298 15.4414 11.9303 15.4414 11.5723Z" fill="#75FEAC"/>
</svg>
