<svg width="16" height="16" viewBox="0 0 16 16" fill="none" xmlns="http://www.w3.org/2000/svg">
<path d="M0.490234 4.36523L0.5 14.1602C0.5 14.5378 0.613932 14.8438 0.841797 15.0781C1.07617 15.319 1.39193 15.4395 1.78906 15.4395H11.584C11.9486 15.4395 12.248 15.319 12.4824 15.0781C12.7168 14.8438 12.834 14.5638 12.834 14.2383C12.834 13.9128 12.7135 13.6361 12.4727 13.4082C12.2318 13.1803 11.9421 13.0664 11.6035 13.0664H8.06836L4.2793 13.2031L6.02734 11.6504L15.041 2.62695C15.3079 2.36003 15.4414 2.0638 15.4414 1.73828C15.4414 1.52344 15.3828 1.32161 15.2656 1.13281C15.1484 0.94401 14.9954 0.791016 14.8066 0.673828C14.6178 0.556641 14.4128 0.498047 14.1914 0.498047C13.8659 0.498047 13.5697 0.628255 13.3027 0.888672L4.2793 9.91211L2.72656 11.6602L2.87305 8.01758V4.3457C2.87305 4.00065 2.75911 3.70768 2.53125 3.4668C2.3099 3.22591 2.0332 3.10547 1.70117 3.10547C1.37565 3.10547 1.09245 3.22591 0.851562 3.4668C0.610677 3.70768 0.490234 4.00716 0.490234 4.36523Z" fill="#75FEAC"/>
</svg>
